<svg width="91" height="91" viewBox="0 0 91 91" fill="none" xmlns="http://www.w3.org/2000/svg">
<path d="M48.5727 32.9818L49.3533 29.083C52.9321 27.5744 55.4531 24.0297 55.4531 19.9062C55.4531 14.4178 50.987 9.95312 45.5 9.95312C40.013 9.95312 35.5469 14.4178 35.5469 19.9062C35.5469 24.0297 38.0679 27.5744 41.6481 29.083L42.4273 32.9818C42.561 33.6472 43.144 34.125 43.8222 34.125H47.1778C47.856 34.125 48.439 33.6472 48.5727 32.9818ZM46.9219 22.3561V27.3327H44.0781V22.3561C43.2321 21.8642 42.6562 20.957 42.6562 19.9062C42.6562 18.3351 43.9288 17.0625 45.5 17.0625C47.0712 17.0625 48.3438 18.3351 48.3438 19.9062C48.3438 20.9556 47.7679 21.8627 46.9219 22.3561Z" fill="#2A579A"/>
<path d="M27.0156 76.7898L26.9147 76.7784C22.0519 76.7656 17.2957 75.8457 12.777 74.0385L12.7485 74.0271C7.73358 75.6694 4.26562 80.4028 4.26562 85.7106V86.7344H43.0473C39.4926 81.1919 33.6558 77.5278 27.0156 76.7898Z" fill="#2A579A"/>
<path d="M12.9376 62.1146C14.887 60.5221 16.2805 58.3495 16.9089 55.8896L16.8194 55.8001C15.143 54.1237 14.2188 51.8885 14.2188 49.5026C14.2188 47.9869 14.7761 46.6446 15.7871 45.6351C16.7966 44.6284 18.1346 44.0739 19.5579 44.0739H19.5693C21.122 44.0767 22.4813 44.6412 23.505 45.6649L23.6941 45.8526L25.6549 41.277C26.7767 38.6594 29.3432 36.9688 32.1898 36.9688H36.9688C38.365 36.9688 39.6689 36.4512 40.6827 35.5753C40.1694 35.0165 39.7954 34.3241 39.639 33.542L39.1328 31.0054C36.909 29.73 35.1758 27.8289 34.0639 25.5938H23.9586C13.0997 25.5938 4.26562 34.4279 4.26562 45.2853C4.26562 50.5462 6.31313 55.4901 10.0342 59.2097L12.9376 62.1146Z" fill="#2A579A"/>
<path d="M24.2556 63.2791C26.3429 64.6697 28.7729 65.4062 31.2811 65.4062C34.4177 65.4062 36.9686 62.8554 36.9686 59.7187V53.006L41.1887 51.5998C41.0465 49.4869 40.428 44.4179 37.9739 39.7385C37.6426 39.7769 37.3084 39.8125 36.9686 39.8125H32.1882C30.4806 39.8125 28.9407 40.8277 28.2667 42.3974L24.6509 50.8334L21.4929 47.6754C21.0038 47.1863 20.3895 46.9787 19.6615 46.919C18.8909 46.919 18.2667 47.1778 17.7946 47.6484C17.324 48.1205 17.0623 48.7475 17.0623 49.4158C17.0623 51.1277 17.6894 52.6492 18.8311 53.7895L20.0596 55.0166L19.6829 56.5138C18.8596 59.8126 16.9301 62.7004 14.2172 64.7209V71.5501C17.8714 72.9635 21.6905 73.754 25.5922 73.909V67.1665C24.5769 66.7655 23.5987 66.2593 22.6759 65.6451L21.9593 65.1673L23.5361 62.8013L24.2556 63.2791ZM32.703 45.5C32.703 46.2834 33.34 46.9218 34.1248 46.9218C34.9097 46.9218 35.5467 46.2834 35.5467 45.5H38.3905C38.3905 47.8517 36.4766 49.7656 34.1248 49.7656C31.7731 49.7656 29.8592 47.8517 29.8592 45.5H32.703Z" fill="#2A579A"/>
<path d="M78.2516 74.0284L78.2245 74.0398C73.7044 75.847 68.9497 76.767 64.0883 76.7798L63.9845 76.7897C57.3443 77.5277 51.5075 81.1918 47.9528 86.7343H86.7345V85.7106C86.7345 80.4027 83.2665 75.6693 78.2516 74.0284Z" fill="#2A579A"/>
<path d="M83.9701 30.8248C82.2966 29.2082 80.124 28.3692 77.8845 28.4432C77.3257 28.4631 76.7911 28.537 76.2949 28.6636L75.1247 28.9622L74.6412 27.8545C73.2833 24.7534 70.2178 22.75 66.828 22.75C63.9587 22.75 61.3026 24.1747 59.7243 26.5635L58.8598 27.8716L57.6427 26.882C57.327 26.6246 56.9801 26.4142 56.6204 26.2307C55.5056 28.1901 53.8818 29.8508 51.8685 31.004L51.3623 33.5378C51.2059 34.3155 50.8376 35.0051 50.3314 35.5611C51.0225 36.1597 51.8343 36.6133 52.7202 36.8166C54.4691 37.2162 56.2621 36.8038 57.6441 35.6791L58.8598 34.6881L59.7258 35.9976C61.3026 38.3878 63.9587 39.8125 66.828 39.8125C67.5077 39.8125 68.1489 39.7357 68.7376 39.5864L69.44 42.342C68.7163 42.5269 67.9385 42.6164 67.1366 42.6378L67.7025 45.4687C68.7021 44.5701 69.9832 44.0781 71.3382 44.0781C74.3384 44.0781 76.7811 46.5195 76.7811 49.5225C76.7811 51.8927 75.8583 54.1208 74.182 55.7986L74.0924 55.8896C74.718 58.331 76.0958 60.4851 78.021 62.0734C83.6289 56.0347 86.7343 48.2428 86.7343 39.9561V37.3171C86.7343 34.8871 85.7262 32.5211 83.9701 30.8248Z" fill="#2A579A"/>
<path d="M73.9376 49.5226C73.9376 48.0879 72.7717 46.9219 71.3384 46.9219C70.6545 46.9219 69.9848 47.1992 69.4999 47.6827L65.9552 51.2274L64.1764 42.3364C61.8673 41.7847 59.7814 40.532 58.2202 38.7163C56.649 39.6007 54.8433 39.9277 53.036 39.7187C50.5648 44.418 49.9506 49.487 49.8098 51.5999L54.0314 53.0062V59.7188C54.0314 62.8555 56.5822 65.4063 59.7189 65.4063C62.227 65.4063 64.657 64.6698 66.7443 63.2792L67.461 62.8015L69.0378 65.1675L68.3212 65.6452C67.3998 66.2595 66.4216 66.7656 65.4049 67.1666V73.9091C69.3066 73.7542 73.1257 72.9622 76.7799 71.5502V64.7011C74.0727 62.6806 72.1375 59.807 71.3142 56.5111L70.9375 55.0167L72.1688 53.7868C73.3106 52.6478 73.9376 51.1321 73.9376 49.5226ZM56.8751 49.7657C54.5233 49.7657 52.6095 47.8519 52.6095 45.5001H55.4532C55.4532 46.2835 56.0902 46.9219 56.8751 46.9219C57.66 46.9219 58.297 46.2835 58.297 45.5001H61.1407C61.1407 47.8519 59.2269 49.7657 56.8751 49.7657Z" fill="#2A579A"/>
<path d="M44.0781 1.42188H46.9219V7.10938H44.0781V1.42188Z" fill="#2A579A"/>
<path d="M37.1178 3.35901L39.7448 2.27011L41.9226 7.52413L39.2956 8.61304L37.1178 3.35901Z" fill="#2A579A"/>
<path d="M31.419 7.84167L33.4298 5.83084L37.4515 9.85251L35.4407 11.8633L31.419 7.84167Z" fill="#2A579A"/>
<path d="M49.093 7.53113L51.2708 2.2771L53.8978 3.366L51.72 8.62003L49.093 7.53113Z" fill="#2A579A"/>
<path d="M53.5394 9.86206L57.5611 5.84039L59.5719 7.85123L55.5503 11.8729L53.5394 9.86206Z" fill="#2A579A"/>
</svg>
