<svg width="14" height="13" viewBox="0 0 14 13" fill="none" xmlns="http://www.w3.org/2000/svg">
<path d="M7.11821 12.5923C6.9289 12.5923 6.74639 12.5238 6.60415 12.3992C6.06695 11.9294 5.54903 11.4879 5.09209 11.0986L5.08975 11.0966C3.75006 9.95495 2.59319 8.96897 1.78825 7.99776C0.888465 6.91202 0.46936 5.88257 0.46936 4.75796C0.46936 3.6653 0.844028 2.65726 1.52428 1.91938C2.21264 1.17279 3.15717 0.761597 4.18418 0.761597C4.95178 0.761597 5.65475 1.00427 6.27351 1.48283C6.58578 1.72439 6.86884 2.02003 7.11821 2.36487C7.36769 2.02003 7.65064 1.72439 7.96301 1.48283C8.58176 1.00427 9.28474 0.761597 10.0523 0.761597C11.0792 0.761597 12.0239 1.17279 12.7123 1.91938C13.3925 2.65726 13.7671 3.6653 13.7671 4.75796C13.7671 5.88257 13.3481 6.91202 12.4483 7.99768C11.6434 8.96897 10.4865 9.9548 9.14707 11.0964C8.68931 11.4864 8.17059 11.9285 7.63217 12.3993C7.49004 12.5238 7.30742 12.5923 7.11821 12.5923ZM4.18418 1.54056C3.37732 1.54056 2.6361 1.86257 2.09688 2.44735C1.54964 3.04095 1.24822 3.86151 1.24822 4.75796C1.24822 5.70381 1.59975 6.54973 2.38795 7.50076C3.14976 8.42 4.28289 9.38565 5.59489 10.5038L5.59732 10.5058C6.05599 10.8967 6.57594 11.3399 7.1171 11.813C7.6615 11.3389 8.18225 10.8951 8.64183 10.5036C9.95377 9.3855 11.0867 8.42 11.8486 7.50076C12.6367 6.54973 12.9882 5.70381 12.9882 4.75796C12.9882 3.86151 12.6868 3.04095 12.1395 2.44735C11.6004 1.86257 10.8591 1.54056 10.0523 1.54056C9.46129 1.54056 8.91858 1.72845 8.43947 2.09896C8.01243 2.42929 7.71496 2.84688 7.54056 3.13906C7.45088 3.28932 7.29302 3.379 7.11821 3.379C6.94341 3.379 6.78555 3.28932 6.69587 3.13906C6.52156 2.84688 6.2241 2.42929 5.79699 2.09896C5.31782 1.72845 4.77515 1.54056 4.18418 1.54056Z" fill="#555555"/>
</svg>
