<svg width="79" height="79" viewBox="0 0 79 79" fill="none" xmlns="http://www.w3.org/2000/svg">
<g clip-path="url(#clip0_2_76)">
<path d="M66.9336 39.251C65.0356 37.1506 62.3234 35.946 59.4924 35.946H45.8291C47.1268 33.0102 48.7858 28.4037 49.5545 22.7414C49.8469 20.5893 49.1964 18.4182 47.7702 16.7854C46.3506 15.1598 44.2983 14.2275 42.14 14.2275C38.5088 14.2275 35.4075 16.8367 34.7658 20.4316C33.8256 25.6971 31.2736 31.0391 29.1576 34.7951C30.0017 35.9449 30.502 37.3624 30.502 38.895V74.6791H57.5987C62.7656 74.6791 67.0552 70.8026 67.5765 65.6621L69.4708 46.9875C69.7564 44.1712 68.8317 41.3513 66.9336 39.251Z" fill="#2A579A"/>
<path d="M23.5587 36.5807H11.7921C10.5139 36.5807 9.47766 37.6169 9.47766 38.8951V76.6856C9.47766 77.9638 10.5139 79 11.7921 79H23.5587C24.8368 79 25.8731 77.9638 25.8731 76.6856V38.8951C25.8731 37.6169 24.8368 36.5807 23.5587 36.5807Z" fill="#2A579A"/>
<path d="M52.4092 0.922996C51.2273 0.435418 49.8744 0.998293 49.387 2.1799L46.9935 7.98146C46.5061 9.16307 47.0687 10.5163 48.2504 11.0037C49.4279 11.4896 50.7835 10.9325 51.2726 9.74677L53.6661 3.94521C54.1535 2.7636 53.5908 1.41042 52.4092 0.922996Z" fill="#2A579A"/>
<path d="M36.0507 1.61632C35.6648 0.397681 34.3636 -0.277368 33.1454 0.108683C31.9269 0.494734 31.2519 1.79546 31.6378 3.01394L33.6183 9.26651C34.0045 10.4858 35.3062 11.1602 36.5236 10.7741C37.7421 10.3881 38.4171 9.08737 38.0312 7.86889L36.0507 1.61632Z" fill="#2A579A"/>
<path d="M28.9969 16.199L21.0594 11.1569C19.9803 10.471 18.5499 10.7906 17.8648 11.8694C17.1795 12.9484 17.4985 14.3787 18.5774 15.064L26.5149 20.1061C27.5957 20.7929 29.0255 20.4702 29.7095 19.3935C30.3948 18.3145 30.0758 16.8842 28.9969 16.199Z" fill="#2A579A"/>
<path d="M66.6433 13.9311C66.0514 12.7983 64.6534 12.359 63.5204 12.9513L55.6325 17.0718C54.4995 17.6637 54.0609 19.0618 54.6528 20.1948C55.2466 21.3318 56.647 21.7645 57.7757 21.1746L65.6635 17.0541C66.7965 16.4622 67.2352 15.0641 66.6433 13.9311Z" fill="#2A579A"/>
</g>
<defs>
<clipPath id="clip0_2_76">
<rect width="79" height="79" fill="white"/>
</clipPath>
</defs>
</svg>
